<?xml version="1.0" encoding="utf-8"?>
<!-- Generator: Adobe Illustrator 16.0.0, SVG Export Plug-In . SVG Version: 6.00 Build 0)  -->
<!DOCTYPE svg PUBLIC "-//W3C//DTD SVG 1.1//EN" "http://www.w3.org/Graphics/SVG/1.1/DTD/svg11.dtd">
<svg version="1.1" id="socialicious" xmlns="http://www.w3.org/2000/svg" xmlns:xlink="http://www.w3.org/1999/xlink" x="0px"
	 y="0px" width="100px" height="100px" viewBox="0 0 100 100" enable-background="new 0 0 100 100" xml:space="preserve">
<path id="dribbble" fill="#363636" d="M98.7,39.9c-0.7-3.2-1.601-6.4-2.9-9.4c-1.2-3-2.8-5.8-4.6-8.5c-1.8-2.6-3.8-5.1-6.101-7.4
	C82.9,12.3,80.4,10.3,77.7,8.5s-5.5-3.4-8.5-4.6c-3-1.3-6.2-2.3-9.4-2.9c-6.6-1.3-13.5-1.3-20,0c-3.2,0.7-6.3,1.6-9.4,2.9
	c-3,1.3-5.8,2.8-8.5,4.6c-2.6,1.8-5.1,3.8-7.4,6.1c-2.2,2.3-4.3,4.8-6.1,7.4c-1.8,2.7-3.3,5.5-4.6,8.5c-1.3,3-2.2,6.2-2.9,9.4
	c-0.7,3.3-1,6.7-1,10.1c0,3.4,0.3,6.8,1,10.1c0.7,3.2,1.6,6.4,2.9,9.4c1.2,3,2.8,5.8,4.6,8.5c1.8,2.6,3.8,5.1,6.1,7.4
	c2.2,2.3,4.7,4.3,7.4,6.1c2.7,1.8,5.5,3.4,8.5,4.6c3,1.301,6.2,2.301,9.4,2.9c3.3,0.7,6.6,1,10,1c3.4,0,6.7-0.3,10-1
	c3.2-0.7,6.4-1.6,9.4-2.9c2.899-1.3,5.8-2.8,8.5-4.6c2.6-1.8,5.1-3.8,7.399-6.1C87.4,83.1,89.4,80.6,91.2,78
	c1.8-2.7,3.3-5.5,4.6-8.5s2.2-6.2,2.9-9.4c0.7-3.3,1-6.699,1-10.1C99.8,46.6,99.4,43.2,98.7,39.9z M41.7,9.4
	c2.7-0.6,5.5-0.8,8.3-0.8s5.6,0.3,8.3,0.8c2.601,0.5,5.2,1.4,7.7,2.4c2.4,1,4.8,2.3,7,3.8c1.5,1,2.9,2.1,4.2,3.3
	c-1.5,2-7.8,9.6-21.601,14.7C49.2,21.8,42.2,12.2,40.3,9.7C40.8,9.6,41.2,9.5,41.7,9.4z M12,33.9c1-2.5,2.3-4.8,3.8-7
	c1.5-2.2,3.2-4.3,5-6.1c1.9-1.9,3.9-3.6,6.1-5.1c1.7-1.2,3.5-2.2,5.3-3.1c1.8,2.5,8.7,12.1,15.2,23.6c-17.8,4.7-33.5,5.1-37.7,5.1
	C10.3,38.8,11,36.3,12,33.9z M19,77.3c-1.1-1.3-2.2-2.7-3.1-4.1c-1.5-2.2-2.8-4.601-3.8-7c-1.1-2.5-1.9-5.101-2.4-7.8
	c-0.6-2.7-0.8-5.5-0.8-8.4c0-0.5,0-0.9,0-1.4c4.5,0,23-0.3,42.1-6c1.2,2.4,2.4,4.8,3.4,7.1C53.8,49.9,53.3,50,52.7,50.2
	C32.6,56.8,21.3,73.5,19,77.3z M66,88.2c-2.5,1.1-5.1,1.899-7.7,2.399C52.9,91.7,47.1,91.7,41.7,90.6C39.1,90.1,36.5,89.2,34,88.2
	c-2.4-1-4.8-2.3-7-3.8c-0.9-0.601-1.8-1.301-2.7-2C26.1,79.1,34.9,64.5,56.9,56.8c0.1,0,0.199-0.1,0.3-0.1
	C62.9,71.5,65.4,83.9,66,88.2C66.1,88.2,66.1,88.2,66,88.2z M90.4,58.4C89.8,61,89,63.6,88,66.1s-2.3,4.801-3.8,7
	c-1.5,2.2-3.2,4.301-5,6.101s-3.8,3.5-5.9,4.899C72.7,80.6,70.4,68.9,65.2,54.6c12.2-2,22.899,0.9,25.6,1.601
	C90.6,57.1,90.5,57.7,90.4,58.4z M62.5,48.2c-0.3-0.7-0.6-1.4-0.9-2.2c-0.899-2.1-1.8-4.1-2.8-6.1c14.5-5.9,21.4-14.1,23-16.1
	c0.8,1,1.601,2,2.3,3.1c1.5,2.2,2.801,4.6,3.801,7C89,36.4,89.8,39,90.3,41.7c0.5,2.5,0.8,5.2,0.8,7.8
	C88.2,48.8,75.5,46.5,62.5,48.2z"/>
</svg>
