<?xml version="1.0" encoding="utf-8"?>
<!-- Generator: Adobe Illustrator 16.0.0, SVG Export Plug-In . SVG Version: 6.00 Build 0)  -->
<!DOCTYPE svg PUBLIC "-//W3C//DTD SVG 1.1//EN" "http://www.w3.org/Graphics/SVG/1.1/DTD/svg11.dtd">
<svg version="1.1" id="socialicious" xmlns="http://www.w3.org/2000/svg" xmlns:xlink="http://www.w3.org/1999/xlink" x="0px"
	 y="0px" width="100px" height="100px" viewBox="0 0 100 100" enable-background="new 0 0 100 100" xml:space="preserve">
<path id="goodreads_1_" fill="#363636" d="M72.6,2.5v12h-0.3c-0.8-1.9-1.899-3.7-3.399-5.4c-1.5-1.7-3.2-3.2-5-4.5
	c-1.9-1.3-4-2.3-6.301-3c-2.3-0.7-4.699-1.1-7.3-1.1c-5,0-9.5,0.9-13.4,2.8C33,5.1,29.7,7.6,27,10.8c-2.6,3.2-4.7,6.9-6.1,11.2
	s-2.1,8.8-2.1,13.5c0,4.9,0.6,9.6,1.8,13.9c1.2,4.3,3,8.1,5.6,11.4C28.8,64,32,66.6,36,68.4c3.9,1.8,8.7,2.8,14.3,2.8
	c5.101,0,9.601-1.3,13.4-3.9c3.8-2.6,6.7-6.1,8.7-10.399h0.3V66.3c0,8.4-1.7,14.9-5.2,19.4s-9.2,6.7-17.1,6.7
	c-2.3,0-4.6-0.2-6.9-0.7c-2.2-0.5-4.3-1.3-6.1-2.4c-1.8-1.1-3.4-2.5-4.7-4.2c-1.3-1.8-2.2-3.899-2.6-6.5h-8.5
	c0.3,3.7,1.3,6.801,3,9.5c1.8,2.601,4,4.801,6.6,6.5c2.6,1.7,5.6,3,8.9,3.801c3.3,0.8,6.7,1.199,10.2,1.199c5.7,0,10.4-0.8,14.3-2.3
	c3.9-1.5,7.101-3.7,9.5-6.6c2.4-2.9,4.2-6.4,5.301-10.5C80.5,76.1,81.1,71.4,81.1,66.3V2.5H72.6z M71.2,46.6
	c-0.9,3.3-2.4,6.3-4.2,8.8C65.1,58,62.8,60,60,61.6C57.2,63.2,54,64,50.3,64c-3.9,0-7.4-0.8-10.2-2.4C37.2,60,34.9,58,33,55.4
	c-1.9-2.5-3.3-5.5-4.2-8.8c-0.9-3.3-1.4-6.7-1.4-10.2c0-3.6,0.4-7.1,1.3-10.6c0.9-3.5,2.2-6.5,4.1-9.2c1.9-2.7,4.3-4.9,7.1-6.5
	c2.9-1.7,6.3-2.5,10.4-2.5c4,0,7.5,0.9,10.3,2.6c2.801,1.7,5.101,3.9,6.9,6.7c1.8,2.8,3.1,5.9,3.9,9.3C72.2,29.6,72.6,33,72.6,36.4
	C72.6,39.9,72.1,43.3,71.2,46.6z"/>
</svg>
