<?xml version="1.0" encoding="utf-8"?>
<!-- Generator: Adobe Illustrator 16.0.0, SVG Export Plug-In . SVG Version: 6.00 Build 0)  -->
<!DOCTYPE svg PUBLIC "-//W3C//DTD SVG 1.1//EN" "http://www.w3.org/Graphics/SVG/1.1/DTD/svg11.dtd">
<svg version="1.1" id="Layer_1" xmlns="http://www.w3.org/2000/svg" xmlns:xlink="http://www.w3.org/1999/xlink" x="0px" y="0px"
	 width="144px" height="144px" viewBox="0 0 144 144" enable-background="new 0 0 144 144" xml:space="preserve">
<path d="M39.921,82.332c1.61,0.659,3.055,0.024,3.523-1.758c0.323-1.234,1.093-4.353,1.436-5.646
	c0.473-1.766,0.287-2.383-1.013-3.919c-2.832-3.344-4.642-7.671-4.642-13.799c0-17.777,13.301-33.692,34.636-33.692
	c18.89,0,29.27,11.544,29.27,26.96c0,20.281-8.977,37.402-22.305,37.402c-7.358,0-12.868-6.085-11.103-13.549
	c2.116-8.912,6.212-18.531,6.212-24.962c0-5.759-3.09-10.563-9.487-10.563c-7.525,0-13.568,7.783-13.568,18.209
	c0,6.639,2.243,11.132,2.243,11.132s-7.699,32.617-9.045,38.332c-2.689,11.375-0.406,25.324-0.211,26.731
	c0.112,0.837,1.185,1.034,1.67,0.404c0.696-0.905,9.654-11.969,12.7-23.022c0.863-3.127,4.948-19.334,4.948-19.334
	c2.445,4.662,9.586,8.767,17.184,8.767c22.616,0,37.959-20.618,37.959-48.211c0-20.869-17.674-40.3-44.537-40.3
	c-33.421,0-50.275,23.962-50.275,43.945C25.516,67.559,30.095,78.32,39.921,82.332z"/>
</svg>
